<svg width="25" height="25" viewBox="0 0 25 25" fill="none" xmlns="http://www.w3.org/2000/svg">
<path d="M20.1748 5.51012C18.7815 4.86058 17.2729 4.38914 15.7014 4.11675C15.6876 4.11631 15.6739 4.11889 15.6613 4.12432C15.6486 4.12975 15.6373 4.1379 15.628 4.14818C15.4395 4.4939 15.2195 4.94439 15.0728 5.29012C13.406 5.03868 11.7109 5.03868 10.0441 5.29012C9.89741 4.93391 9.67741 4.4939 9.47836 4.14818C9.46788 4.12722 9.43645 4.11675 9.40502 4.11675C7.83355 4.38914 6.33541 4.86058 4.93157 5.51012C4.92109 5.51012 4.91061 5.5206 4.90014 5.53108C2.05053 9.795 1.26479 13.9437 1.65242 18.0504C1.65242 18.0714 1.6629 18.0923 1.68385 18.1028C3.56962 19.4857 5.38205 20.3238 7.17353 20.8791C7.20496 20.8895 7.23639 20.8791 7.24687 20.8581C7.66593 20.2819 8.04308 19.6743 8.36785 19.0352C8.3888 18.9933 8.36785 18.9514 8.32594 18.9409C7.72878 18.7104 7.16305 18.438 6.6078 18.1237C6.5659 18.1028 6.5659 18.0399 6.59732 18.0085C6.71257 17.9247 6.82781 17.8304 6.94305 17.7466C6.964 17.7256 6.99543 17.7256 7.01638 17.7361C10.6203 19.3809 14.5071 19.3809 18.0691 17.7361C18.09 17.7256 18.1214 17.7256 18.1424 17.7466C18.2576 17.8409 18.3729 17.9247 18.4881 18.019C18.53 18.0504 18.53 18.1133 18.4776 18.1342C17.9329 18.459 17.3567 18.7209 16.7595 18.9514C16.7176 18.9619 16.7071 19.0142 16.7176 19.0457C17.0528 19.6847 17.43 20.2924 17.8386 20.8686C17.87 20.8791 17.9014 20.8895 17.9329 20.8791C19.7348 20.3238 21.5473 19.4857 23.433 18.1028C23.454 18.0923 23.4644 18.0714 23.4644 18.0504C23.9254 13.3046 22.6997 9.18737 20.2167 5.53108C20.2063 5.5206 20.1958 5.51012 20.1748 5.51012ZM8.91263 15.5465C7.83355 15.5465 6.93257 14.5513 6.93257 13.3256C6.93257 12.0998 7.8126 11.1046 8.91263 11.1046C10.0231 11.1046 10.9032 12.1103 10.8927 13.3256C10.8927 14.5513 10.0127 15.5465 8.91263 15.5465ZM16.2147 15.5465C15.1357 15.5465 14.2347 14.5513 14.2347 13.3256C14.2347 12.0998 15.1147 11.1046 16.2147 11.1046C17.3252 11.1046 18.2053 12.1103 18.1948 13.3256C18.1948 14.5513 17.3252 15.5465 16.2147 15.5465Z" fill="white"/>
</svg>
