<svg width="32" height="33" viewBox="0 0 32 33" fill="none" xmlns="http://www.w3.org/2000/svg">
<g clip-path="url(#clip0_12_327)">
<path d="M5 8.5V24.5C5 25.0304 5.21071 25.5391 5.58579 25.9142C5.96086 26.2893 6.46957 26.5 7 26.5H27C27.2652 26.5 27.5196 26.3946 27.7071 26.2071C27.8946 26.0196 28 25.7652 28 25.5V11.5C28 11.2348 27.8946 10.9804 27.7071 10.7929C27.5196 10.6054 27.2652 10.5 27 10.5H7C6.46957 10.5 5.96086 10.2893 5.58579 9.91421C5.21071 9.53914 5 9.03043 5 8.5ZM5 8.5C5 7.96957 5.21071 7.46086 5.58579 7.08579C5.96086 6.71071 6.46957 6.5 7 6.5H24" stroke="#373B8A" stroke-width="2" stroke-linecap="round" stroke-linejoin="round"/>
<path d="M22.5 19.5C23.3284 19.5 24 18.8284 24 18C24 17.1716 23.3284 16.5 22.5 16.5C21.6716 16.5 21 17.1716 21 18C21 18.8284 21.6716 19.5 22.5 19.5Z" fill="#373B8A"/>
</g>
<defs>
<clipPath id="clip0_12_327">
<rect width="32" height="32" fill="white" transform="translate(0 0.5)"/>
</clipPath>
</defs>
</svg>
