<svg width="32" height="33" viewBox="0 0 32 33" fill="none" xmlns="http://www.w3.org/2000/svg">
<g clip-path="url(#clip0_12_300)">
<path d="M12 15.5C17.5228 15.5 22 13.4853 22 11C22 8.51472 17.5228 6.5 12 6.5C6.47715 6.5 2 8.51472 2 11C2 13.4853 6.47715 15.5 12 15.5Z" stroke="#373B8A" stroke-width="2" stroke-linecap="round" stroke-linejoin="round"/>
<path d="M2 11V16C2 18.485 6.4775 20.5 12 20.5C17.5225 20.5 22 18.485 22 16V11" stroke="#373B8A" stroke-width="2" stroke-linecap="round" stroke-linejoin="round"/>
<path d="M8 15.125V20.125" stroke="#373B8A" stroke-width="2" stroke-linecap="round" stroke-linejoin="round"/>
<path d="M22 12.59C26.565 13.0075 30 14.8225 30 17C30 19.485 25.5225 21.5 20 21.5C17.55 21.5 15.305 21.1037 13.5662 20.445" stroke="#373B8A" stroke-width="2" stroke-linecap="round" stroke-linejoin="round"/>
<path d="M10 20.41V22C10 24.485 14.4775 26.5 20 26.5C25.5225 26.5 30 24.485 30 22V17" stroke="#373B8A" stroke-width="2" stroke-linecap="round" stroke-linejoin="round"/>
<path d="M24 21.125V26.125" stroke="#373B8A" stroke-width="2" stroke-linecap="round" stroke-linejoin="round"/>
<path d="M16 15.125V26.125" stroke="#373B8A" stroke-width="2" stroke-linecap="round" stroke-linejoin="round"/>
</g>
<defs>
<clipPath id="clip0_12_300">
<rect width="32" height="32" fill="white" transform="translate(0 0.5)"/>
</clipPath>
</defs>
</svg>
