<svg width="32" height="33" viewBox="0 0 32 33" fill="none" xmlns="http://www.w3.org/2000/svg">
<path fill-rule="evenodd" clip-rule="evenodd" d="M3.21029 9.63488C3.47546 9.15041 4.08315 8.97263 4.56762 9.23779L16 15.495L27.4324 9.23779C27.9169 8.97263 28.5245 9.15041 28.7897 9.63488C29.0549 10.1193 28.8771 10.727 28.3926 10.9922L16.4801 17.5122C16.181 17.6759 15.819 17.6759 15.5199 17.5122L3.60738 10.9922C3.12292 10.727 2.94513 10.1193 3.21029 9.63488Z" fill="#373B8A"/>
<path fill-rule="evenodd" clip-rule="evenodd" d="M15.04 2.74774C15.3343 2.58669 15.6645 2.50227 16 2.50227C16.3355 2.50227 16.6657 2.58669 16.96 2.74774L27.96 8.77024C28.2741 8.94211 28.5364 9.19518 28.7193 9.50302C28.9022 9.81085 28.9992 10.1621 29 10.5202L29 10.5225L29 22.4798C28.9992 22.8379 28.9022 23.1892 28.7193 23.497C28.5364 23.8047 28.2743 24.0578 27.9602 24.2296C27.9602 24.2297 27.9603 24.2296 27.9602 24.2296L16.9602 30.2521C16.6659 30.4132 16.3355 30.4977 16 30.4977C15.6645 30.4977 15.3343 30.4133 15.04 30.2523L4.04 24.2298C4.03992 24.2297 4.04008 24.2298 4.04 24.2298C3.72596 24.0579 3.46358 23.8047 3.28069 23.497C3.09775 23.1892 3.00082 22.8379 3 22.4798L3 22.4775V10.5225L3 10.5202C3.00082 10.1621 3.09775 9.81085 3.28069 9.50302C3.46359 9.19526 3.72573 8.94224 4.03977 8.77036C4.03984 8.77032 4.03969 8.77041 4.03977 8.77036L15.04 2.74774ZM16 4.50227L5.00023 10.5246L5 22.4752L16 28.4977L26.9998 22.4754L27 10.5248L16 4.50227Z" fill="#373B8A"/>
<path fill-rule="evenodd" clip-rule="evenodd" d="M16 15.6363C16.5523 15.6363 17 16.084 17 16.6363V29.5C17 30.0523 16.5523 30.5 16 30.5C15.4477 30.5 15 30.0523 15 29.5V16.6363C15 16.084 15.4477 15.6363 16 15.6363Z" fill="#373B8A"/>
</svg>
