<svg width="25" height="25" viewBox="0 0 25 25" fill="none" xmlns="http://www.w3.org/2000/svg">
<path d="M8.419 21.8787C16.7207 21.8787 21.2615 15.0004 21.2615 9.03624C21.2615 8.84044 21.2615 8.64574 21.2483 8.45324C22.1318 7.81362 22.8943 7.02171 23.5 6.11464C22.6762 6.47984 21.8022 6.71938 20.9073 6.82524C21.8496 6.261 22.5548 5.37362 22.8917 4.32824C22.0059 4.85391 21.0368 5.22444 20.0262 5.42384C19.3457 4.69978 18.4455 4.22026 17.465 4.05951C16.4845 3.89877 15.4783 4.06578 14.6022 4.53467C13.7262 5.00357 13.0292 5.7482 12.6191 6.65326C12.2091 7.55833 12.1088 8.57334 12.3339 9.54114C10.5393 9.4512 8.78376 8.9849 7.18111 8.17248C5.57846 7.36007 4.16456 6.21971 3.0312 4.82544C2.45405 5.81896 2.27725 6.9951 2.53679 8.1144C2.79633 9.2337 3.4727 10.212 4.4282 10.8501C3.71018 10.8294 3.0077 10.6362 2.38 10.2869V10.3441C2.38043 11.3862 2.74123 12.396 3.40124 13.2023C4.06124 14.0087 4.97982 14.562 6.0012 14.7683C5.33659 14.9495 4.63928 14.9759 3.9629 14.8453C4.25128 15.7424 4.81284 16.5268 5.56904 17.0889C6.32523 17.651 7.23823 17.9627 8.1803 17.9803C7.24433 18.7158 6.17256 19.2595 5.0263 19.5803C3.88003 19.9012 2.68176 19.993 1.5 19.8503C3.56426 21.1751 5.96621 21.8777 8.419 21.8743" fill="white"/>
</svg>
