<svg width="195" height="32" viewBox="0 0 195 32" fill="none" xmlns="http://www.w3.org/2000/svg">
<path d="M13.718 0.756605L25.7045 15.5416C25.9106 15.7958 25.9108 16.1594 25.7052 16.4138L13.7186 31.2426C13.4412 31.5858 12.918 31.5858 12.6406 31.2426L0.654073 16.4138C0.448406 16.1594 0.448669 15.7958 0.654702 15.5416L12.6413 0.756605C12.9186 0.414465 13.4406 0.414465 13.718 0.756605Z" fill="#89A8F2" stroke="#373B8A"/>
<path d="M27.6936 0.756605L39.6801 15.5416C39.8862 15.7958 39.8864 16.1594 39.6808 16.4138L27.6942 31.2426C27.4168 31.5858 26.8936 31.5858 26.6162 31.2426L14.6297 16.4138C14.424 16.1594 14.4243 15.7958 14.6303 15.5416L26.6168 0.756605L26.2335 0.445821L26.6168 0.756605C26.8942 0.414465 27.4162 0.414465 27.6936 0.756605Z" fill="#C8B0F5" stroke="#373B8A"/>
<path d="M53.6159 21.3887C52.5699 21.3887 51.5686 21.242 50.6119 20.9486C49.6552 20.6424 48.8962 20.2534 48.335 19.7814L49.196 17.8489C49.7317 18.2698 50.395 18.6206 51.1859 18.9013C51.9768 19.1819 52.7868 19.3222 53.6159 19.3222C54.3175 19.3222 54.8851 19.2457 55.3188 19.0926C55.7525 18.9395 56.0714 18.7354 56.2755 18.4803C56.4796 18.2124 56.5816 17.9127 56.5816 17.581C56.5816 17.1728 56.435 16.8476 56.1416 16.6052C55.8482 16.3501 55.4655 16.1524 54.9935 16.012C54.5343 15.859 54.0177 15.7187 53.4437 15.5911C52.8824 15.4635 52.3148 15.3168 51.7408 15.151C51.1795 14.9724 50.6629 14.7492 50.1909 14.4813C49.7317 14.2007 49.3554 13.8308 49.062 13.3716C48.7687 12.9124 48.622 12.3256 48.622 11.6113C48.622 10.8842 48.8133 10.2209 49.196 9.62134C49.5914 9.00905 50.1846 8.52433 50.9754 8.16716C51.7791 7.79724 52.7931 7.61228 54.0177 7.61228C54.8213 7.61228 55.6186 7.71433 56.4094 7.91843C57.2003 8.12252 57.8891 8.41591 58.4759 8.79858L57.6914 10.7311C57.0919 10.3739 56.4732 10.1124 55.8354 9.94661C55.1976 9.76803 54.5854 9.67874 53.9986 9.67874C53.3098 9.67874 52.7485 9.76165 52.3148 9.92748C51.8939 10.0933 51.5813 10.3102 51.3772 10.578C51.1859 10.8459 51.0902 11.152 51.0902 11.4965C51.0902 11.9046 51.2306 12.2363 51.5112 12.4914C51.8046 12.7338 52.1809 12.9251 52.6401 13.0654C53.112 13.2057 53.635 13.3461 54.2091 13.4864C54.7831 13.6139 55.3507 13.7606 55.912 13.9265C56.486 14.0923 57.0026 14.3091 57.4618 14.577C57.9338 14.8449 58.3101 15.2084 58.5907 15.6676C58.8841 16.1268 59.0308 16.7072 59.0308 17.4088C59.0308 18.1231 58.8331 18.7865 58.4376 19.3987C58.055 19.9983 57.4618 20.483 56.6582 20.8529C55.8546 21.2101 54.8405 21.3887 53.6159 21.3887Z" fill="#373B8A"/>
<path d="M65.1136 21.3313C63.991 21.3313 63.1236 21.0442 62.5113 20.4702C61.8991 19.8835 61.5929 19.0224 61.5929 17.8872V8.72205H63.9847V17.8298C63.9847 18.3145 64.1058 18.6908 64.3482 18.9587C64.6033 19.2265 64.9541 19.3605 65.4006 19.3605C65.9363 19.3605 66.3828 19.2202 66.7399 18.9395L67.4096 20.6424C67.129 20.872 66.7846 21.0442 66.3764 21.159C65.9682 21.2739 65.5473 21.3313 65.1136 21.3313ZM59.9091 12.9698V11.0564H66.7208V12.9698H59.9091Z" fill="#373B8A"/>
<path d="M75.6721 21.1973V19.1309L75.5382 18.6908V15.0745C75.5382 14.3729 75.3277 13.8308 74.9068 13.4481C74.4858 13.0527 73.8481 12.855 72.9934 12.855C72.4194 12.855 71.8518 12.9443 71.2905 13.1228C70.742 13.3014 70.2764 13.5502 69.8937 13.8691L68.9562 12.1279C69.5047 11.7069 70.1552 11.3944 70.9078 11.1903C71.6732 10.9735 72.464 10.865 73.2804 10.865C74.7601 10.865 75.9018 11.2222 76.7054 11.9365C77.5218 12.6381 77.9299 13.7287 77.9299 15.2084V21.1973H75.6721ZM72.4577 21.3313C71.6923 21.3313 71.0226 21.2037 70.4486 20.9486C69.8746 20.6807 69.4281 20.3172 69.1092 19.8579C68.8031 19.386 68.65 18.8566 68.65 18.2698C68.65 17.6958 68.784 17.1792 69.0518 16.72C69.3325 16.2608 69.7853 15.8972 70.4103 15.6294C71.0354 15.3615 71.8645 15.2276 72.8977 15.2276H75.8635V16.8157H73.0699C72.2536 16.8157 71.7051 16.9496 71.4244 17.2175C71.1438 17.4726 71.0035 17.7915 71.0035 18.1742C71.0035 18.6079 71.1757 18.9523 71.5201 19.2074C71.8645 19.4625 72.3429 19.5901 72.9551 19.5901C73.5419 19.5901 74.0649 19.4561 74.5241 19.1883C74.9961 18.9204 75.3341 18.525 75.5382 18.002L75.94 19.437C75.7104 20.0365 75.2958 20.5021 74.6963 20.8338C74.1095 21.1654 73.3633 21.3313 72.4577 21.3313Z" fill="#373B8A"/>
<path d="M82.9511 18.9204L83.0085 15.9164L88.3468 10.9798H91.2169L86.6822 15.5337L85.4193 16.5861L82.9511 18.9204ZM80.9994 21.1973V7H83.3912V21.1973H80.9994ZM88.7104 21.1973L84.9793 16.5861L86.4908 14.6727L91.6187 21.1973H88.7104Z" fill="#373B8A"/>
<path d="M97.5551 21.3313C96.4199 21.3313 95.4249 21.108 94.5703 20.6616C93.7284 20.2024 93.0714 19.5773 92.5995 18.7865C92.1403 17.9956 91.9107 17.0963 91.9107 16.0886C91.9107 15.0681 92.1339 14.1688 92.5803 13.3907C93.0396 12.5998 93.6646 11.9812 94.4555 11.5347C95.2591 11.0883 96.1711 10.865 97.1916 10.865C98.1866 10.865 99.0731 11.0819 99.8512 11.5156C100.629 11.9493 101.242 12.5616 101.688 13.3524C102.135 14.1433 102.358 15.0745 102.358 16.146C102.358 16.248 102.351 16.3628 102.339 16.4904C102.339 16.6179 102.332 16.7391 102.319 16.8539H93.8049V15.2658H101.057L100.119 15.7633C100.132 15.1765 100.011 14.6599 99.7555 14.2135C99.5004 13.767 99.1496 13.4162 98.7032 13.1611C98.2695 12.906 97.7656 12.7784 97.1916 12.7784C96.6048 12.7784 96.0882 12.906 95.6418 13.1611C95.2081 13.4162 94.8636 13.7734 94.6085 14.2326C94.3662 14.6791 94.245 15.2084 94.245 15.8207V16.2034C94.245 16.8157 94.3853 17.3578 94.6659 17.8298C94.9466 18.3017 95.342 18.6653 95.8522 18.9204C96.3625 19.1755 96.9492 19.3031 97.6125 19.3031C98.1866 19.3031 98.7032 19.2138 99.1624 19.0352C99.6216 18.8566 100.03 18.576 100.387 18.1933L101.669 19.6666C101.21 20.2024 100.629 20.6169 99.9277 20.9103C99.2389 21.1909 98.4481 21.3313 97.5551 21.3313Z" fill="#373B8A"/>
<path d="M113.158 21.1973V9.02819H108.451V7.80362H119.28V9.02819H114.574V21.1973H113.158Z" fill="#373B8A"/>
<path d="M124.304 21.293C123.334 21.293 122.46 21.0761 121.682 20.6424C120.917 20.196 120.311 19.5901 119.865 18.8247C119.418 18.0466 119.195 17.1601 119.195 16.1651C119.195 15.1574 119.418 14.2709 119.865 13.5055C120.311 12.7402 120.917 12.1406 121.682 11.7069C122.448 11.2732 123.321 11.0564 124.304 11.0564C125.299 11.0564 126.179 11.2732 126.944 11.7069C127.722 12.1406 128.328 12.7402 128.762 13.5055C129.208 14.2709 129.432 15.1574 129.432 16.1651C129.432 17.1601 129.208 18.0466 128.762 18.8247C128.328 19.5901 127.722 20.196 126.944 20.6424C126.166 21.0761 125.286 21.293 124.304 21.293ZM124.304 20.0876C125.031 20.0876 125.675 19.9281 126.236 19.6092C126.797 19.2776 127.238 18.8183 127.556 18.2316C127.888 17.632 128.054 16.9432 128.054 16.1651C128.054 15.3742 127.888 14.6854 127.556 14.0987C127.238 13.5119 126.797 13.0591 126.236 12.7402C125.675 12.4085 125.037 12.2427 124.323 12.2427C123.608 12.2427 122.971 12.4085 122.409 12.7402C121.848 13.0591 121.402 13.5119 121.07 14.0987C120.738 14.6854 120.573 15.3742 120.573 16.1651C120.573 16.9432 120.738 17.632 121.07 18.2316C121.402 18.8183 121.848 19.2776 122.409 19.6092C122.971 19.9281 123.602 20.0876 124.304 20.0876Z" fill="#373B8A"/>
<path d="M136.491 25.005C135.573 25.005 134.692 24.871 133.851 24.6031C133.009 24.3353 132.326 23.9526 131.803 23.4551L132.492 22.4219C132.964 22.8428 133.544 23.1745 134.233 23.4168C134.935 23.672 135.675 23.7995 136.453 23.7995C137.728 23.7995 138.666 23.4998 139.265 22.9002C139.865 22.3135 140.165 21.395 140.165 20.145V17.6384L140.356 15.9164L140.222 14.1943V11.152H141.523V19.9728C141.523 21.7076 141.096 22.9768 140.241 23.7804C139.399 24.5968 138.149 25.005 136.491 25.005ZM136.242 20.8146C135.286 20.8146 134.425 20.6105 133.659 20.2024C132.894 19.7814 132.288 19.201 131.841 18.4612C131.408 17.7213 131.191 16.8731 131.191 15.9164C131.191 14.9597 131.408 14.1178 131.841 13.3907C132.288 12.6509 132.894 12.0768 133.659 11.6687C134.425 11.2605 135.286 11.0564 136.242 11.0564C137.135 11.0564 137.939 11.2413 138.653 11.6113C139.367 11.9812 139.935 12.5297 140.356 13.2568C140.777 13.9839 140.987 14.8704 140.987 15.9164C140.987 16.9624 140.777 17.8489 140.356 18.576C139.935 19.3031 139.367 19.8579 138.653 20.2406C137.939 20.6233 137.135 20.8146 136.242 20.8146ZM136.376 19.6092C137.116 19.6092 137.773 19.4561 138.347 19.15C138.921 18.8311 139.374 18.3974 139.706 17.8489C140.037 17.2876 140.203 16.6435 140.203 15.9164C140.203 15.1893 140.037 14.5515 139.706 14.003C139.374 13.4545 138.921 13.0272 138.347 12.721C137.773 12.4021 137.116 12.2427 136.376 12.2427C135.649 12.2427 134.992 12.4021 134.405 12.721C133.831 13.0272 133.379 13.4545 133.047 14.003C132.728 14.5515 132.569 15.1893 132.569 15.9164C132.569 16.6435 132.728 17.2876 133.047 17.8489C133.379 18.3974 133.831 18.8311 134.405 19.15C134.992 19.4561 135.649 19.6092 136.376 19.6092Z" fill="#373B8A"/>
<path d="M149.57 21.293C148.524 21.293 147.606 21.0761 146.815 20.6424C146.024 20.196 145.406 19.5901 144.959 18.8247C144.513 18.0466 144.289 17.1601 144.289 16.1651C144.289 15.1702 144.5 14.29 144.921 13.5246C145.355 12.7593 145.941 12.1598 146.681 11.7261C147.434 11.2796 148.276 11.0564 149.207 11.0564C150.151 11.0564 150.986 11.2732 151.713 11.7069C152.453 12.1279 153.034 12.7274 153.455 13.5055C153.875 14.2709 154.086 15.1574 154.086 16.1651C154.086 16.2289 154.08 16.2991 154.067 16.3756C154.067 16.4394 154.067 16.5095 154.067 16.5861H145.323V15.572H153.34L152.804 15.9738C152.804 15.2467 152.645 14.6025 152.326 14.0413C152.019 13.4672 151.599 13.0208 151.063 12.7019C150.527 12.383 149.908 12.2235 149.207 12.2235C148.518 12.2235 147.899 12.383 147.351 12.7019C146.802 13.0208 146.375 13.4672 146.069 14.0413C145.763 14.6153 145.61 15.2722 145.61 16.012V16.2225C145.61 16.9879 145.775 17.6639 146.107 18.2507C146.452 18.8247 146.924 19.2776 147.523 19.6092C148.135 19.9281 148.831 20.0876 149.609 20.0876C150.221 20.0876 150.789 19.9791 151.312 19.7623C151.847 19.5454 152.306 19.2138 152.689 18.7673L153.455 19.6475C153.008 20.1832 152.447 20.5914 151.771 20.872C151.107 21.1527 150.374 21.293 149.57 21.293Z" fill="#373B8A"/>
<path d="M160.027 21.293C159.083 21.293 158.356 21.0379 157.846 20.5276C157.336 20.0174 157.081 19.2967 157.081 18.3655V8.93252H158.439V18.289C158.439 18.8757 158.586 19.3286 158.879 19.6475C159.185 19.9664 159.619 20.1258 160.18 20.1258C160.78 20.1258 161.277 19.9536 161.673 19.6092L162.151 20.585C161.883 20.8274 161.558 21.006 161.175 21.1208C160.805 21.2356 160.423 21.293 160.027 21.293ZM155.282 12.2809V11.152H161.501V12.2809H155.282Z" fill="#373B8A"/>
<path d="M169.752 11.0564C170.568 11.0564 171.283 11.2158 171.895 11.5347C172.52 11.8409 173.005 12.3128 173.349 12.9506C173.706 13.5884 173.885 14.392 173.885 15.3615V21.1973H172.526V15.4954C172.526 14.4367 172.259 13.6394 171.723 13.1037C171.2 12.5552 170.46 12.2809 169.503 12.2809C168.789 12.2809 168.164 12.4276 167.628 12.721C167.105 13.0017 166.697 13.4162 166.404 13.9647C166.123 14.5005 165.983 15.151 165.983 15.9164V21.1973H164.624V7H165.983V13.9073L165.715 13.3907C166.034 12.6636 166.544 12.096 167.246 11.6878C167.947 11.2668 168.783 11.0564 169.752 11.0564Z" fill="#373B8A"/>
<path d="M181.821 21.293C180.775 21.293 179.857 21.0761 179.066 20.6424C178.275 20.196 177.657 19.5901 177.21 18.8247C176.764 18.0466 176.54 17.1601 176.54 16.1651C176.54 15.1702 176.751 14.29 177.172 13.5246C177.606 12.7593 178.192 12.1598 178.932 11.7261C179.685 11.2796 180.527 11.0564 181.458 11.0564C182.402 11.0564 183.237 11.2732 183.964 11.7069C184.704 12.1279 185.285 12.7274 185.706 13.5055C186.126 14.2709 186.337 15.1574 186.337 16.1651C186.337 16.2289 186.331 16.2991 186.318 16.3756C186.318 16.4394 186.318 16.5095 186.318 16.5861H177.574V15.572H185.591L185.055 15.9738C185.055 15.2467 184.896 14.6025 184.577 14.0413C184.27 13.4672 183.85 13.0208 183.314 12.7019C182.778 12.383 182.159 12.2235 181.458 12.2235C180.769 12.2235 180.15 12.383 179.602 12.7019C179.053 13.0208 178.626 13.4672 178.32 14.0413C178.014 14.6153 177.861 15.2722 177.861 16.012V16.2225C177.861 16.9879 178.026 17.6639 178.358 18.2507C178.703 18.8247 179.175 19.2776 179.774 19.6092C180.386 19.9281 181.082 20.0876 181.86 20.0876C182.472 20.0876 183.04 19.9791 183.563 19.7623C184.098 19.5454 184.557 19.2138 184.94 18.7673L185.706 19.6475C185.259 20.1832 184.698 20.5914 184.022 20.872C183.358 21.1527 182.625 21.293 181.821 21.293Z" fill="#373B8A"/>
<path d="M189.102 21.1973V11.152H190.403V13.8882L190.269 13.4098C190.55 12.6445 191.022 12.0641 191.685 11.6687C192.348 11.2605 193.171 11.0564 194.153 11.0564V12.3766C194.102 12.3766 194.051 12.3766 194 12.3766C193.949 12.3639 193.898 12.3575 193.847 12.3575C192.789 12.3575 191.959 12.6828 191.36 13.3333C190.76 13.9711 190.461 14.8831 190.461 16.0694V21.1973H189.102Z" fill="#373B8A"/>
</svg>
