<svg width="195" height="32" viewBox="0 0 195 32" fill="none" xmlns="http://www.w3.org/2000/svg">
<path d="M13.718 0.756605L25.7045 15.5416C25.9106 15.7958 25.9108 16.1594 25.7052 16.4138L13.7186 31.2426C13.4412 31.5858 12.918 31.5858 12.6406 31.2426L0.654073 16.4138C0.448406 16.1594 0.448669 15.7958 0.654702 15.5416L12.6413 0.756605C12.9186 0.414465 13.4406 0.414465 13.718 0.756605Z" fill="#89A8F2" stroke="#373B8A"/>
<path d="M27.6936 0.756605L39.6801 15.5416C39.8862 15.7958 39.8864 16.1594 39.6808 16.4138L27.6942 31.2426C27.4168 31.5858 26.8936 31.5858 26.6162 31.2426L14.6297 16.4138C14.424 16.1594 14.4243 15.7958 14.6303 15.5416L26.6168 0.756605L26.2335 0.445821L26.6168 0.756605C26.8942 0.414465 27.4162 0.414465 27.6936 0.756605Z" fill="#C8B0F5" stroke="#373B8A"/>
<path d="M53.6159 21.3862C52.5699 21.3862 51.5686 21.2395 50.6119 20.9461C49.6552 20.64 48.8962 20.2509 48.335 19.779L49.196 17.8465C49.7317 18.2674 50.395 18.6182 51.1859 18.8988C51.9768 19.1794 52.7868 19.3198 53.6159 19.3198C54.3175 19.3198 54.8851 19.2432 55.3188 19.0902C55.7525 18.9371 56.0714 18.733 56.2755 18.4779C56.4796 18.21 56.5816 17.9102 56.5816 17.5786C56.5816 17.1704 56.435 16.8451 56.1416 16.6028C55.8482 16.3476 55.4655 16.1499 54.9935 16.0096C54.5343 15.8565 54.0177 15.7162 53.4437 15.5887C52.8824 15.4611 52.3148 15.3144 51.7408 15.1486C51.1795 14.97 50.6629 14.7468 50.1909 14.4789C49.7317 14.1983 49.3554 13.8283 49.062 13.3691C48.7687 12.9099 48.622 12.3231 48.622 11.6088C48.622 10.8817 48.8133 10.2184 49.196 9.6189C49.5914 9.00661 50.1846 8.52189 50.9754 8.16472C51.7791 7.7948 52.7931 7.60984 54.0177 7.60984C54.8213 7.60984 55.6186 7.71189 56.4094 7.91598C57.2003 8.12008 57.8891 8.41346 58.4759 8.79614L57.6914 10.7287C57.0919 10.3715 56.4732 10.11 55.8354 9.94417C55.1976 9.76559 54.5854 9.6763 53.9986 9.6763C53.3098 9.6763 52.7485 9.75921 52.3148 9.92504C51.8939 10.0909 51.5813 10.3077 51.3772 10.5756C51.1859 10.8435 51.0902 11.1496 51.0902 11.494C51.0902 11.9022 51.2306 12.2339 51.5112 12.489C51.8046 12.7313 52.1809 12.9227 52.6401 13.063C53.112 13.2033 53.635 13.3436 54.2091 13.4839C54.7831 13.6115 55.3507 13.7582 55.912 13.924C56.486 14.0898 57.0026 14.3067 57.4618 14.5746C57.9338 14.8424 58.3101 15.206 58.5907 15.6652C58.8841 16.1244 59.0308 16.7048 59.0308 17.4064C59.0308 18.1207 58.8331 18.784 58.4376 19.3963C58.055 19.9958 57.4618 20.4805 56.6582 20.8505C55.8546 21.2076 54.8405 21.3862 53.6159 21.3862Z" fill="#373B8A"/>
<path d="M65.1136 21.3288C63.991 21.3288 63.1236 21.0418 62.5113 20.4678C61.8991 19.881 61.5929 19.02 61.5929 17.8847V8.71961H63.9847V17.8273C63.9847 18.312 64.1058 18.6883 64.3482 18.9562C64.6033 19.2241 64.9541 19.358 65.4006 19.358C65.9363 19.358 66.3828 19.2177 66.7399 18.9371L67.4096 20.64C67.129 20.8696 66.7846 21.0418 66.3764 21.1566C65.9682 21.2714 65.5473 21.3288 65.1136 21.3288ZM59.9091 12.9673V11.0539H66.7208V12.9673H59.9091Z" fill="#373B8A"/>
<path d="M75.6721 21.1949V19.1284L75.5382 18.6883V15.072C75.5382 14.3705 75.3277 13.8283 74.9068 13.4457C74.4858 13.0502 73.8481 12.8525 72.9934 12.8525C72.4194 12.8525 71.8518 12.9418 71.2905 13.1204C70.742 13.299 70.2764 13.5477 69.8937 13.8666L68.9562 12.1254C69.5047 11.7045 70.1552 11.392 70.9078 11.1879C71.6732 10.971 72.464 10.8626 73.2804 10.8626C74.7601 10.8626 75.9018 11.2198 76.7054 11.9341C77.5218 12.6357 77.9299 13.7263 77.9299 15.206V21.1949H75.6721ZM72.4577 21.3288C71.6923 21.3288 71.0226 21.2013 70.4486 20.9461C69.8746 20.6783 69.4281 20.3147 69.1092 19.8555C68.8031 19.3835 68.65 18.8542 68.65 18.2674C68.65 17.6934 68.784 17.1768 69.0518 16.7176C69.3325 16.2583 69.7853 15.8948 70.4103 15.6269C71.0354 15.3591 71.8645 15.2251 72.8977 15.2251H75.8635V16.8132H73.0699C72.2536 16.8132 71.7051 16.9472 71.4244 17.215C71.1438 17.4702 71.0035 17.7891 71.0035 18.1717C71.0035 18.6054 71.1757 18.9498 71.5201 19.205C71.8645 19.4601 72.3429 19.5876 72.9551 19.5876C73.5419 19.5876 74.0649 19.4537 74.5241 19.1858C74.9961 18.9179 75.3341 18.5225 75.5382 17.9995L75.94 19.4346C75.7104 20.0341 75.2958 20.4997 74.6963 20.8313C74.1095 21.163 73.3633 21.3288 72.4577 21.3288Z" fill="#373B8A"/>
<path d="M82.9511 18.9179L83.0085 15.9139L88.3468 10.9774H91.2169L86.6822 15.5313L85.4193 16.5836L82.9511 18.9179ZM80.9994 21.1949V6.99756H83.3912V21.1949H80.9994ZM88.7104 21.1949L84.9793 16.5836L86.4908 14.6702L91.6187 21.1949H88.7104Z" fill="#373B8A"/>
<path d="M97.5551 21.3288C96.4199 21.3288 95.4249 21.1056 94.5703 20.6591C93.7284 20.1999 93.0714 19.5749 92.5995 18.784C92.1403 17.9931 91.9107 17.0939 91.9107 16.0861C91.9107 15.0657 92.1339 14.1664 92.5803 13.3883C93.0396 12.5974 93.6646 11.9787 94.4555 11.5323C95.2591 11.0858 96.1711 10.8626 97.1916 10.8626C98.1866 10.8626 99.0731 11.0794 99.8512 11.5131C100.629 11.9468 101.242 12.5591 101.688 13.35C102.135 14.1409 102.358 15.072 102.358 16.1435C102.358 16.2456 102.351 16.3604 102.339 16.4879C102.339 16.6155 102.332 16.7367 102.319 16.8515H93.8049V15.2634H101.057L100.119 15.7609C100.132 15.1741 100.011 14.6575 99.7555 14.211C99.5004 13.7646 99.1496 13.4138 98.7032 13.1587C98.2695 12.9035 97.7656 12.776 97.1916 12.776C96.6048 12.776 96.0882 12.9035 95.6418 13.1587C95.2081 13.4138 94.8636 13.7709 94.6085 14.2302C94.3662 14.6766 94.245 15.206 94.245 15.8183V16.2009C94.245 16.8132 94.3853 17.3553 94.6659 17.8273C94.9466 18.2993 95.342 18.6628 95.8522 18.9179C96.3625 19.1731 96.9492 19.3006 97.6125 19.3006C98.1866 19.3006 98.7032 19.2113 99.1624 19.0328C99.6216 18.8542 100.03 18.5735 100.387 18.1909L101.669 19.6642C101.21 20.1999 100.629 20.6145 99.9277 20.9079C99.2389 21.1885 98.4481 21.3288 97.5551 21.3288Z" fill="#373B8A"/>
<path d="M113.158 21.1949V9.02575H108.451V7.80118H119.28V9.02575H114.574V21.1949H113.158Z" fill="#373B8A"/>
<path d="M124.304 21.2905C123.334 21.2905 122.46 21.0737 121.682 20.64C120.917 20.1935 120.311 19.5876 119.865 18.8223C119.418 18.0442 119.195 17.1576 119.195 16.1627C119.195 15.155 119.418 14.2684 119.865 13.5031C120.311 12.7377 120.917 12.1382 121.682 11.7045C122.448 11.2708 123.321 11.0539 124.304 11.0539C125.299 11.0539 126.179 11.2708 126.944 11.7045C127.722 12.1382 128.328 12.7377 128.762 13.5031C129.208 14.2684 129.432 15.155 129.432 16.1627C129.432 17.1576 129.208 18.0442 128.762 18.8223C128.328 19.5876 127.722 20.1935 126.944 20.64C126.166 21.0737 125.286 21.2905 124.304 21.2905ZM124.304 20.0851C125.031 20.0851 125.675 19.9257 126.236 19.6068C126.797 19.2751 127.238 18.8159 127.556 18.2291C127.888 17.6296 128.054 16.9408 128.054 16.1627C128.054 15.3718 127.888 14.683 127.556 14.0962C127.238 13.5094 126.797 13.0566 126.236 12.7377C125.675 12.4061 125.037 12.2402 124.323 12.2402C123.608 12.2402 122.971 12.4061 122.409 12.7377C121.848 13.0566 121.402 13.5094 121.07 14.0962C120.738 14.683 120.573 15.3718 120.573 16.1627C120.573 16.9408 120.738 17.6296 121.07 18.2291C121.402 18.8159 121.848 19.2751 122.409 19.6068C122.971 19.9257 123.602 20.0851 124.304 20.0851Z" fill="#373B8A"/>
<path d="M136.491 25.0025C135.573 25.0025 134.692 24.8686 133.851 24.6007C133.009 24.3328 132.326 23.9501 131.803 23.4527L132.492 22.4194C132.964 22.8404 133.544 23.172 134.233 23.4144C134.935 23.6695 135.675 23.7971 136.453 23.7971C137.728 23.7971 138.666 23.4973 139.265 22.8978C139.865 22.311 140.165 21.3926 140.165 20.1425V17.636L140.356 15.9139L140.222 14.1919V11.1496H141.523V19.9703C141.523 21.7051 141.096 22.9743 140.241 23.7779C139.399 24.5943 138.149 25.0025 136.491 25.0025ZM136.242 20.8122C135.286 20.8122 134.425 20.6081 133.659 20.1999C132.894 19.779 132.288 19.1986 131.841 18.4587C131.408 17.7189 131.191 16.8706 131.191 15.9139C131.191 14.9572 131.408 14.1154 131.841 13.3883C132.288 12.6484 132.894 12.0744 133.659 11.6662C134.425 11.258 135.286 11.0539 136.242 11.0539C137.135 11.0539 137.939 11.2389 138.653 11.6088C139.367 11.9787 139.935 12.5272 140.356 13.2543C140.777 13.9814 140.987 14.8679 140.987 15.9139C140.987 16.9599 140.777 17.8465 140.356 18.5735C139.935 19.3006 139.367 19.8555 138.653 20.2382C137.939 20.6209 137.135 20.8122 136.242 20.8122ZM136.376 19.6068C137.116 19.6068 137.773 19.4537 138.347 19.1476C138.921 18.8287 139.374 18.395 139.706 17.8465C140.037 17.2852 140.203 16.641 140.203 15.9139C140.203 15.1868 140.037 14.5491 139.706 14.0005C139.374 13.452 138.921 13.0247 138.347 12.7186C137.773 12.3997 137.116 12.2402 136.376 12.2402C135.649 12.2402 134.992 12.3997 134.405 12.7186C133.831 13.0247 133.379 13.452 133.047 14.0005C132.728 14.5491 132.569 15.1868 132.569 15.9139C132.569 16.641 132.728 17.2852 133.047 17.8465C133.379 18.395 133.831 18.8287 134.405 19.1476C134.992 19.4537 135.649 19.6068 136.376 19.6068Z" fill="#373B8A"/>
<path d="M149.57 21.2905C148.524 21.2905 147.606 21.0737 146.815 20.64C146.024 20.1935 145.406 19.5876 144.959 18.8223C144.513 18.0442 144.289 17.1576 144.289 16.1627C144.289 15.1677 144.5 14.2876 144.921 13.5222C145.355 12.7568 145.941 12.1573 146.681 11.7236C147.434 11.2772 148.276 11.0539 149.207 11.0539C150.151 11.0539 150.986 11.2708 151.713 11.7045C152.453 12.1254 153.034 12.725 153.455 13.5031C153.875 14.2684 154.086 15.155 154.086 16.1627C154.086 16.2265 154.08 16.2966 154.067 16.3731C154.067 16.4369 154.067 16.5071 154.067 16.5836H145.323V15.5695H153.34L152.804 15.9713C152.804 15.2442 152.645 14.6001 152.326 14.0388C152.019 13.4648 151.599 13.0183 151.063 12.6994C150.527 12.3805 149.908 12.2211 149.207 12.2211C148.518 12.2211 147.899 12.3805 147.351 12.6994C146.802 13.0183 146.375 13.4648 146.069 14.0388C145.763 14.6128 145.61 15.2698 145.61 16.0096V16.2201C145.61 16.9854 145.775 17.6615 146.107 18.2483C146.452 18.8223 146.924 19.2751 147.523 19.6068C148.135 19.9257 148.831 20.0851 149.609 20.0851C150.221 20.0851 150.789 19.9767 151.312 19.7598C151.847 19.543 152.306 19.2113 152.689 18.7649L153.455 19.645C153.008 20.1808 152.447 20.589 151.771 20.8696C151.107 21.1502 150.374 21.2905 149.57 21.2905Z" fill="#373B8A"/>
<path d="M160.027 21.2905C159.083 21.2905 158.356 21.0354 157.846 20.5252C157.336 20.015 157.081 19.2942 157.081 18.3631V8.93008H158.439V18.2865C158.439 18.8733 158.586 19.3261 158.879 19.645C159.185 19.9639 159.619 20.1234 160.18 20.1234C160.78 20.1234 161.277 19.9512 161.673 19.6068L162.151 20.5826C161.883 20.825 161.558 21.0035 161.175 21.1183C160.805 21.2331 160.423 21.2905 160.027 21.2905ZM155.282 12.2785V11.1496H161.501V12.2785H155.282Z" fill="#373B8A"/>
<path d="M169.752 11.0539C170.568 11.0539 171.283 11.2134 171.895 11.5323C172.52 11.8384 173.005 12.3104 173.349 12.9482C173.706 13.586 173.885 14.3896 173.885 15.3591V21.1949H172.526V15.493C172.526 14.4342 172.259 13.637 171.723 13.1013C171.2 12.5528 170.46 12.2785 169.503 12.2785C168.789 12.2785 168.164 12.4252 167.628 12.7186C167.105 12.9992 166.697 13.4138 166.404 13.9623C166.123 14.498 165.983 15.1486 165.983 15.9139V21.1949H164.624V6.99756H165.983V13.9049L165.715 13.3883C166.034 12.6612 166.544 12.0935 167.246 11.6854C167.947 11.2644 168.783 11.0539 169.752 11.0539Z" fill="#373B8A"/>
<path d="M181.821 21.2905C180.775 21.2905 179.857 21.0737 179.066 20.64C178.275 20.1935 177.657 19.5876 177.21 18.8223C176.764 18.0442 176.54 17.1576 176.54 16.1627C176.54 15.1677 176.751 14.2876 177.172 13.5222C177.606 12.7568 178.192 12.1573 178.932 11.7236C179.685 11.2772 180.527 11.0539 181.458 11.0539C182.402 11.0539 183.237 11.2708 183.964 11.7045C184.704 12.1254 185.285 12.725 185.706 13.5031C186.126 14.2684 186.337 15.155 186.337 16.1627C186.337 16.2265 186.331 16.2966 186.318 16.3731C186.318 16.4369 186.318 16.5071 186.318 16.5836H177.574V15.5695H185.591L185.055 15.9713C185.055 15.2442 184.896 14.6001 184.577 14.0388C184.27 13.4648 183.85 13.0183 183.314 12.6994C182.778 12.3805 182.159 12.2211 181.458 12.2211C180.769 12.2211 180.15 12.3805 179.602 12.6994C179.053 13.0183 178.626 13.4648 178.32 14.0388C178.014 14.6128 177.861 15.2698 177.861 16.0096V16.2201C177.861 16.9854 178.026 17.6615 178.358 18.2483C178.703 18.8223 179.175 19.2751 179.774 19.6068C180.386 19.9257 181.082 20.0851 181.86 20.0851C182.472 20.0851 183.04 19.9767 183.563 19.7598C184.098 19.543 184.557 19.2113 184.94 18.7649L185.706 19.645C185.259 20.1808 184.698 20.589 184.022 20.8696C183.358 21.1502 182.625 21.2905 181.821 21.2905Z" fill="#373B8A"/>
<path d="M189.102 21.1949V11.1496H190.403V13.8857L190.269 13.4074C190.55 12.642 191.022 12.0617 191.685 11.6662C192.348 11.258 193.171 11.0539 194.153 11.0539V12.3742C194.102 12.3742 194.051 12.3742 194 12.3742C193.949 12.3614 193.898 12.355 193.847 12.355C192.789 12.355 191.959 12.6803 191.36 13.3309C190.76 13.9687 190.461 14.8807 190.461 16.067V21.1949H189.102Z" fill="#373B8A"/>
</svg>
