<svg width="34" height="27" viewBox="0 0 34 27" fill="none" xmlns="http://www.w3.org/2000/svg">
<path d="M22.1167 12.7051L12.1152 0.368572C11.7168 -0.122857 10.9671 -0.122857 10.5687 0.368572L0.567175 12.7051C0.271242 13.0701 0.270865 13.5924 0.566271 13.9578L10.5677 26.3308C10.9662 26.8237 11.7177 26.8237 12.1161 26.3308L22.1176 13.9578C22.413 13.5924 22.4126 13.0701 22.1167 12.7051Z" fill="#89A8F2"/>
<path fill-rule="evenodd" clip-rule="evenodd" d="M21.5773 13.1424L11.5758 0.805872C11.4553 0.657232 11.2286 0.657231 11.1081 0.805872L1.10657 13.1424C1.01706 13.2528 1.01695 13.4108 1.1063 13.5213L11.1078 25.8943C11.2283 26.0434 11.4556 26.0434 11.5761 25.8943L21.5776 13.5213C21.6669 13.4108 21.6668 13.2528 21.5773 13.1424ZM12.1152 0.368572L22.1167 12.7051C22.4126 13.0701 22.413 13.5924 22.1176 13.9578L12.1161 26.3308C11.7177 26.8237 10.9662 26.8237 10.5677 26.3308L0.566271 13.9578C0.270865 13.5924 0.271242 13.0701 0.567175 12.7051L10.5687 0.368572C10.9671 -0.122857 11.7168 -0.122857 12.1152 0.368572Z" fill="#373B8A"/>
<path d="M33.7778 12.7051L23.7763 0.368572C23.3779 -0.122857 22.6281 -0.122857 22.2297 0.368572L12.2282 12.7051C11.9323 13.0701 11.9319 13.5924 12.2273 13.9578L22.2288 26.3308C22.6273 26.8237 23.3788 26.8237 23.7772 26.3308L33.7787 13.9578C34.0741 13.5924 34.0737 13.0701 33.7778 12.7051Z" fill="#C8B0F5"/>
<path fill-rule="evenodd" clip-rule="evenodd" d="M33.2384 13.1424L23.2369 0.805872C23.1164 0.657232 22.8896 0.657232 22.7691 0.805872L22.3503 0.466295L22.7691 0.805872L12.7676 13.1424C12.6781 13.2528 12.678 13.4108 12.7674 13.5213L22.7688 25.8943C22.8894 26.0434 23.1167 26.0434 23.2372 25.8943L33.2386 13.5213C33.328 13.4108 33.3279 13.2528 33.2384 13.1424ZM12.2282 12.7051L22.2297 0.368572C22.6281 -0.122857 23.3779 -0.122857 23.7763 0.368572L33.7778 12.7051C34.0737 13.0701 34.0741 13.5924 33.7787 13.9578L23.7772 26.3308C23.3788 26.8237 22.6273 26.8237 22.2288 26.3308L12.2273 13.9578C11.9319 13.5924 11.9323 13.0701 12.2282 12.7051Z" fill="#373B8A"/>
</svg>
